<?xml version="1.0" standalone="no"?>
<svg xmlns:xlink="http://www.w3.org/1999/xlink" id="wave" style="transform:rotate(180deg); transition: 0.3s" viewBox="0 0 1440 340" version="1.1" xmlns="http://www.w3.org/2000/svg"><defs><linearGradient id="sw-gradient-0" x1="0" x2="0" y1="1" y2="0"><stop stop-color="rgba(21, 189, 253, 1)" offset="0%"/><stop stop-color="rgba(0, 113, 172, 1)" offset="100%"/></linearGradient></defs><path style="transform:translate(0, 0px); opacity:1" fill="url(#sw-gradient-0)" d="M0,102L18.5,136C36.9,170,74,238,111,260.7C147.7,283,185,261,222,232.3C258.5,204,295,170,332,136C369.2,102,406,68,443,51C480,34,517,34,554,73.7C590.8,113,628,193,665,209.7C701.5,227,738,181,775,153C812.3,125,849,113,886,107.7C923.1,102,960,102,997,96.3C1033.8,91,1071,79,1108,79.3C1144.6,79,1182,91,1218,124.7C1255.4,159,1292,215,1329,198.3C1366.2,181,1403,91,1440,62.3C1476.9,34,1514,68,1551,107.7C1587.7,147,1625,193,1662,204C1698.5,215,1735,193,1772,158.7C1809.2,125,1846,79,1883,73.7C1920,68,1957,102,1994,147.3C2030.8,193,2068,249,2105,272C2141.5,295,2178,283,2215,255C2252.3,227,2289,181,2326,158.7C2363.1,136,2400,136,2437,113.3C2473.8,91,2511,45,2548,34C2584.6,23,2622,45,2640,56.7L2658.5,68L2658.5,340L2640,340C2621.5,340,2585,340,2548,340C2510.8,340,2474,340,2437,340C2400,340,2363,340,2326,340C2289.2,340,2252,340,2215,340C2178.5,340,2142,340,2105,340C2067.7,340,2031,340,1994,340C1956.9,340,1920,340,1883,340C1846.2,340,1809,340,1772,340C1735.4,340,1698,340,1662,340C1624.6,340,1588,340,1551,340C1513.8,340,1477,340,1440,340C1403.1,340,1366,340,1329,340C1292.3,340,1255,340,1218,340C1181.5,340,1145,340,1108,340C1070.8,340,1034,340,997,340C960,340,923,340,886,340C849.2,340,812,340,775,340C738.5,340,702,340,665,340C627.7,340,591,340,554,340C516.9,340,480,340,443,340C406.2,340,369,340,332,340C295.4,340,258,340,222,340C184.6,340,148,340,111,340C73.8,340,37,340,18,340L0,340Z"/></svg>